<svg xmlns="http://www.w3.org/2000/svg" style="position:absolute; width: 0; height: 0"><symbol viewBox="0 0 100 100" id="icon-social_icon-fb"><path class="icon" d="M57.761 99.956v-45.59h15.307l2.29-17.773H57.76V25.247c0-5.141 1.434-8.65 8.81-8.65h9.404V.702C74.348.48 68.765 0 62.268 0c-13.57 0-22.853 8.33-22.853 23.498v13.128h-15.39v17.762H39.36V100h18.368z" fill="#fff"></path></symbol><symbol viewBox="0 0 100 100" id="icon-social_icon-gp"><path class="icon" d="M47.857 4.625c.83.52 1.754 1.258 2.786 2.25.98 1.02 1.961 2.284 2.907 3.777.905 1.408 1.713 3.069 2.422 4.995.577 1.96.865 4.21.865 6.748-.08 4.729-1.119 8.478-3.114 11.304a34.146 34.146 0 0 1-3.115 3.795 127.994 127.994 0 0 1-3.864 3.518 17.11 17.11 0 0 0-2.18 2.768c-.778 1.061-1.17 2.307-1.17 3.708 0 1.373.403 2.503 1.21 3.403a31.4 31.4 0 0 0 2.02 2.238l4.475 3.656c2.768 2.278 5.19 4.764 7.284 7.498 1.96 2.768 2.999 6.402 3.074 10.9 0 6.373-2.826 12.008-8.432 16.927-5.825 5.093-14.228 7.717-25.22 7.89-9.194-.075-16.063-2.036-20.602-5.883C2.636 90.542.34 86.262.34 81.257c0-2.423.75-5.134 2.25-8.11 1.441-2.987 4.054-5.611 7.843-7.872 4.25-2.422 8.72-4.037 13.403-4.862 4.626-.675 8.478-1.061 11.535-1.154a29.136 29.136 0 0 1-2.538-3.979c-.865-1.384-1.286-3.04-1.286-4.96 0-1.153.162-2.134.49-2.907l.808-2.249c-1.5.173-2.907.254-4.222.254-6.995-.087-12.324-2.29-15.993-6.598-3.846-4.02-5.767-8.697-5.767-14.032 0-6.46 2.71-12.296 8.16-17.556 3.732-3.074 7.614-5.075 11.651-6.02C30.654.403 34.379 0 37.863 0h26.27l-8.109 4.73h-8.138zm5.076 75.61c0-3.327-1.096-6.228-3.259-8.708-2.307-2.348-5.9-5.231-10.796-8.651a29.091 29.091 0 0 0-2.942-.127c-.674-.081-2.393 0-5.15.253a57.092 57.092 0 0 0-8.345 1.858c-.67.26-1.615.646-2.826 1.153-1.211.56-2.44 1.35-3.703 2.376-1.211 1.067-2.238 2.394-3.068 3.98-.969 1.66-1.442 3.673-1.442 6.02 0 4.615 2.076 8.421 6.27 11.409 3.979 2.987 9.458 4.527 16.32 4.613 6.23-.086 10.959-1.453 14.188-4.094 3.172-2.619 4.787-5.97 4.787-10.076zM34.62 41.744c3.46-.133 6.344-1.373 8.64-3.731 1.113-1.673 1.828-3.403 2.145-5.133.19-1.788.289-3.23.289-4.441 0-5.19-1.327-10.44-3.98-15.687-1.24-2.538-2.872-4.603-4.902-6.171-2.076-1.5-4.452-2.307-7.14-2.365-3.564.058-6.517 1.5-8.882 4.28-1.99 2.9-2.941 6.153-2.855 9.746 0 4.752 1.385 9.69 4.17 14.822 1.35 2.405 3.08 4.441 5.214 6.114 2.134 1.672 4.556 2.503 7.296 2.503zm65.039-27.51H85.876V.45h-6.673v13.784H65.419v6.69h13.784v13.784h6.673V20.924H99.66z" fill="#fff"></path></symbol><symbol viewBox="0 0 100 100" id="icon-social_icon-ins"><path d="M12.835 0h74.33C94.224 0 100 5.776 100 12.835v74.33C100 94.225 94.224 100 87.165 100h-74.33C5.775 100 0 94.224 0 87.165v-74.33C0 5.775 5.776 0 12.835 0zm60.01 11.11a4.515 4.515 0 0 0-4.501 4.502v10.776a4.515 4.515 0 0 0 4.502 4.502h11.303a4.515 4.515 0 0 0 4.501-4.502V15.612a4.515 4.515 0 0 0-4.501-4.501H72.846zm15.852 31.18h-8.801a29.244 29.244 0 0 1 1.282 8.58c0 16.633-13.917 30.116-31.083 30.116-17.166 0-31.082-13.483-31.082-30.117 0-2.981.45-5.86 1.282-8.58H11.11v42.242a3.987 3.987 0 0 0 3.975 3.975h69.636a3.987 3.987 0 0 0 3.975-3.975V42.289zM50.095 30.322c-11.092 0-20.084 8.713-20.084 19.46 0 10.748 8.992 19.46 20.084 19.46 11.092 0 20.084-8.712 20.084-19.46 0-10.747-8.992-19.46-20.084-19.46z" fill="#fff"></path></symbol><symbol viewBox="0 0 100 100" id="icon-social_icon-tw"><path fill="#6F6F6F" d="M16.36 14c.08-.66.14-1.32.14-2 0-.68-.06-1.34-.14-2h3.38c.16.64.26 1.31.26 2s-.1 1.36-.26 2m-5.15 5.56c.6-1.11 1.06-2.31 1.38-3.56h2.95a8.03 8.03 0 0 1-4.33 3.56M14.34 14H9.66c-.1-.66-.16-1.32-.16-2 0-.68.06-1.35.16-2h4.68c.09.65.16 1.32.16 2 0 .68-.07 1.34-.16 2M12 19.96c-.83-1.2-1.5-2.53-1.91-3.96h3.82c-.41 1.43-1.08 2.76-1.91 3.96M8 8H5.08A7.923 7.923 0 0 1 9.4 4.44C8.8 5.55 8.35 6.75 8 8m-2.92 8H8c.35 1.25.8 2.45 1.4 3.56A8.008 8.008 0 0 1 5.08 16m-.82-2C4.1 13.36 4 12.69 4 12s.1-1.36.26-2h3.38c-.08.66-.14 1.32-.14 2 0 .68.06 1.34.14 2M12 4.03c.83 1.2 1.5 2.54 1.91 3.97h-3.82c.41-1.43 1.08-2.77 1.91-3.97M18.92 8h-2.95a15.65 15.65 0 0 0-1.38-3.56c1.84.63 3.37 1.9 4.33 3.56M12 2C6.47 2 2 6.5 2 12a10 10 0 0 0 10 10 10 10 0 0 0 10-10A10 10 0 0 0 12 2z"></path></symbol><symbol viewBox="0 0 100 100" id="icon-social_icon-vk"><path d="M92.499 65.178c-2.873-3.446-6.254-6.387-9.453-9.51-2.886-2.815-3.068-4.448-.748-7.697 2.532-3.546 5.255-6.956 7.81-10.486 2.385-3.299 4.823-6.589 6.078-10.539.796-2.513.092-3.623-2.485-4.063-.444-.077-.903-.081-1.355-.081l-15.289-.018c-1.883-.028-2.924.793-3.59 2.462-.899 2.256-1.826 4.51-2.897 6.687-2.43 4.936-5.144 9.707-8.949 13.747-.839.891-1.767 2.017-3.169 1.553-1.754-.64-2.271-3.53-2.242-4.507l-.015-17.647c-.34-2.521-.899-3.645-3.402-4.135l-15.882.003c-2.12 0-3.183.819-4.315 2.145-.653.766-.85 1.263.492 1.517 2.636.5 4.121 2.206 4.515 4.849.632 4.223.588 8.463.224 12.703-.107 1.238-.32 2.473-.811 3.629-.768 1.817-2.008 2.187-3.637 1.069-1.475-1.012-2.511-2.44-3.525-3.874-3.809-5.382-6.848-11.186-9.326-17.285-.716-1.762-1.951-2.83-3.818-2.859a389.727 389.727 0 0 0-13.762.004c-2.76.052-3.583 1.392-2.459 3.894 4.996 11.113 10.557 21.917 17.816 31.759 3.727 5.051 8.006 9.51 13.534 12.67 6.265 3.582 13.009 4.66 20.112 4.328 3.326-.156 4.325-1.021 4.479-4.336.104-2.268.361-4.523 1.48-6.561 1.098-2 2.761-2.381 4.678-1.137.959.623 1.767 1.416 2.53 2.252 1.872 2.048 3.677 4.158 5.62 6.137 2.437 2.48 5.324 3.945 8.954 3.646l14.052.003c2.264-.148 3.438-2.924 2.138-5.451-.913-1.77-2.111-3.346-3.383-4.871z"></path></symbol><symbol viewBox="0 0 100 100" id="icon-social_icon-you"><g fill="#fff"><path d="M82.287 45.907c-.937-4.071-4.267-7.074-8.275-7.521-9.489-1.06-19.098-1.065-28.66-1.06-9.566-.005-19.173 0-28.665 1.06-4.006.448-7.334 3.451-8.27 7.521-1.334 5.797-1.35 12.125-1.35 18.094 0 5.969 0 12.296 1.334 18.093.936 4.07 4.264 7.073 8.272 7.521 9.49 1.061 19.097 1.065 28.662 1.061 9.566.005 19.171 0 28.664-1.061 4.006-.448 7.336-3.451 8.272-7.521 1.333-5.797 1.34-12.124 1.34-18.093-.001-5.97.009-12.297-1.324-18.094zM28.9 50.4h-5.54v29.438h-5.146V50.4h-5.439v-4.822H28.9V50.4zm13.977 29.439h-4.629v-2.785c-1.839 2.108-3.585 3.136-5.286 3.136-1.491 0-2.517-.604-2.98-1.897-.252-.772-.408-1.994-.408-3.796V54.311h4.625v18.795c0 1.084 0 1.647.042 1.799.111.718.462 1.082 1.082 1.082.928 0 1.898-.715 2.924-2.166v-19.51h4.629l.001 25.528zm17.573-7.662c0 2.361-.159 4.062-.468 5.144-.618 1.899-1.855 2.869-3.695 2.869-1.646 0-3.234-.914-4.781-2.824v2.474h-4.625V45.578h4.625v11.189c1.494-1.839 3.08-2.769 4.781-2.769 1.84 0 3.078.969 3.695 2.88.311 1.027.468 2.715.468 5.132v10.167zm17.457-4.259h-9.251v4.525c0 2.363.773 3.543 2.363 3.543 1.139 0 1.802-.619 2.066-1.855.043-.251.104-1.279.104-3.134h4.719v.675c0 1.491-.057 2.518-.099 2.98a6.591 6.591 0 0 1-1.08 2.771c-1.281 1.854-3.179 2.768-5.595 2.768-2.42 0-4.262-.871-5.599-2.614-.981-1.278-1.485-3.29-1.485-6.003v-8.941c0-2.729.447-4.725 1.43-6.015 1.336-1.747 3.177-2.617 5.54-2.617 2.321 0 4.161.87 5.457 2.617.969 1.29 1.432 3.286 1.432 6.015v5.285h-.002z"></path><path d="M70.978 58.163c-1.546 0-2.321 1.181-2.321 3.541v2.362h4.625v-2.362c-.001-2.36-.774-3.541-2.304-3.541zM53.812 58.163c-.762 0-1.534.36-2.307 1.125v15.559c.772.774 1.545 1.14 2.307 1.14 1.334 0 2.012-1.14 2.012-3.445V61.646c0-2.302-.678-3.483-2.012-3.483zM56.396 34.973c1.705 0 3.479-1.036 5.34-3.168v2.814h4.675V8.82h-4.675v19.718c-1.036 1.464-2.018 2.188-2.953 2.188-.626 0-.994-.37-1.096-1.095-.057-.153-.057-.722-.057-1.817V8.82h-4.66v20.4c0 1.822.156 3.055.414 3.836.47 1.307 1.507 1.917 3.012 1.917zM23.851 20.598v14.021h5.184V20.598L35.271 0h-5.242l-3.537 13.595L22.812 0h-5.455c1.093 3.209 2.23 6.434 3.323 9.646 1.663 4.828 2.701 8.468 3.171 10.952zM42.219 34.973c2.342 0 4.162-.881 5.453-2.641.981-1.291 1.451-3.325 1.451-6.067v-9.034c0-2.758-.469-4.774-1.451-6.077-1.291-1.765-3.11-2.646-5.453-2.646-2.33 0-4.149.881-5.443 2.646-.993 1.303-1.463 3.319-1.463 6.077v9.034c0 2.742.47 4.776 1.463 6.067 1.293 1.76 3.113 2.641 5.443 2.641zm-2.231-18.679c0-2.387.724-3.577 2.231-3.577s2.229 1.189 2.229 3.577v10.852c0 2.387-.722 3.581-2.229 3.581-1.507 0-2.231-1.194-2.231-3.581V16.294z"></path></g></symbol></svg>